<svg xmlns="http://www.w3.org/2000/svg" viewBox="0 0 100 120" width="32" height="38">
  <!-- Ears -->
  <ellipse cx="31" cy="28" rx="9" ry="12" fill="#00ACD7"/>
  <ellipse cx="69" cy="28" rx="9" ry="12" fill="#00ACD7"/>
  <ellipse cx="31" cy="29" rx="5" ry="7" fill="#CE8FCE"/>
  <ellipse cx="69" cy="29" rx="5" ry="7" fill="#CE8FCE"/>
  <!-- Head -->
  <ellipse cx="50" cy="44" rx="26" ry="24" fill="#00ACD7"/>
  <!-- Eyes whites -->
  <circle cx="40" cy="38" r="9" fill="white"/>
  <circle cx="60" cy="38" r="9" fill="white"/>
  <!-- Pupils -->
  <circle cx="41" cy="39" r="5" fill="#333"/>
  <circle cx="61" cy="39" r="5" fill="#333"/>
  <!-- Eye shine -->
  <circle cx="43" cy="37" r="2" fill="white"/>
  <circle cx="63" cy="37" r="2" fill="white"/>
  <!-- Snout -->
  <ellipse cx="50" cy="52" rx="11" ry="8" fill="#CE8FCE"/>
  <!-- Nose -->
  <ellipse cx="50" cy="48" rx="4" ry="2.5" fill="#333"/>
  <!-- Mouth -->
  <path d="M44 55 Q50 60 56 55" stroke="#333" stroke-width="1.5" fill="none" stroke-linecap="round"/>
  <!-- Body -->
  <ellipse cx="50" cy="90" rx="26" ry="24" fill="#00ACD7"/>
  <!-- Belly -->
  <ellipse cx="50" cy="91" rx="16" ry="16" fill="#C5E8F5"/>
  <!-- Arms -->
  <ellipse cx="22" cy="84" rx="7" ry="13" fill="#00ACD7" transform="rotate(20 22 84)"/>
  <ellipse cx="78" cy="84" rx="7" ry="13" fill="#00ACD7" transform="rotate(-20 78 84)"/>
  <!-- Feet -->
  <ellipse cx="37" cy="112" rx="11" ry="6" fill="#00ACD7"/>
  <ellipse cx="63" cy="112" rx="11" ry="6" fill="#00ACD7"/>
</svg>
