<svg xmlns="http://www.w3.org/2000/svg" width="32" height="32" viewBox="0 0 32 32.000001">
  <!-- Go Gopher by Renee French, CC BY 4.0 (https://go.dev/brand) -->
  <g transform="translate(0,-1020.3622)">
    <ellipse cx="-907.35657" cy="479.90009" rx="3.5793996" ry="3.8207953"
       transform="matrix(-0.49169095,-0.87076978,-0.87076978,0.49169095,0,0)"
       fill="#384e54"/>
    <ellipse cx="-891.57654" cy="507.8461" rx="3.5793996" ry="3.8207953"
       transform="matrix(0.49169095,-0.87076978,0.87076978,0.49169095,0,0)"
       fill="#384e54"/>
    <path d="m 16.091693,1021.3642 c -1.105749,0.01 -2.210341,0.049 -3.31609,0.09 C 6.8422558,1021.6738 2,1026.3942 2,1032.3622 c 0,2.9786 0,13 0,20 l 28,0 c 0,-8 0,-16 0,-20 0,-5.9683 -4.667345,-10.4912 -10.59023,-10.908 -1.10575,-0.078 -2.212328,-0.099 -3.318077,-0.09 z" fill="#384e54"/>
    <path d="m 4.6078867,1025.0462 c 0.459564,0.2595 1.818262,1.2013 1.980983,1.648 0.183401,0.5035 0.159385,1.0657 -0.114614,1.551 -0.346627,0.6138 -1.005341,0.9487 -1.696421,0.9365 -0.339886,-0.01 -1.720283,-0.6372 -2.042561,-0.8192 -0.97754,-0.5519 -1.350795,-1.7418 -0.833686,-2.6576 0.517109,-0.9158 1.728749,-1.2107 2.706299,-0.6587 z" fill="#76e1fe"/>
    <path d="m 16,1023.3622 c -9,0 -12,3.7153 -12,9 l 0,20 24,0 c -0.04889,-7.3562 0,-18 0,-20 0,-5.2848 -3,-9 -12,-9 z" fill="#76e1fe"/>
    <path d="m 27.074073,1025.0462 c -0.45957,0.2595 -1.818257,1.2013 -1.980979,1.648 -0.183401,0.5035 -0.159384,1.0657 0.114614,1.551 0.346627,0.6138 1.005335,0.9487 1.696415,0.9365 0.33988,-0.01 1.72029,-0.6372 2.04256,-0.8192 0.97754,-0.5519 1.35079,-1.7418 0.83369,-2.6576 -0.51711,-0.9158 -1.72876,-1.2107 -2.7063,-0.6587 z" fill="#76e1fe"/>
    <circle cx="10.339486" cy="1030.3542" r="4.8316345" fill="#ffffff"/>
    <circle cx="21.175734" cy="1030.3542" r="4.6537542" fill="#ffffff"/>
    <path d="m 19.999735,1036.5289 c 0,0.838 -0.871228,1.2682 -2.144766,1.1659 -0.02366,0 -0.04795,-0.6004 -0.254147,-0.5832 -0.503669,0.042 -1.095902,-0.02 -1.685964,-0.02 -0.612939,0 -1.206342,0.1826 -1.68549,0.017 -0.110233,-0.038 -0.178298,0.5838 -0.261532,0.5816 -1.243685,-0.033 -2.078803,-0.3383 -2.078803,-1.1618 0,-1.2118 1.815635,-2.1941 4.055351,-2.1941 2.239704,0 4.055351,0.9823 4.055351,2.1941 z" fill="#000" fill-opacity="0.329"/>
    <path d="m 19.977414,1035.7004 c 0,0.5685 -0.433659,0.8554 -1.138091,1.0001 -0.291933,0.06 -0.630371,0.096 -1.003719,0.1166 -0.56405,0.032 -1.207782,0.031 -1.89122,0.031 -0.672834,0 -1.307182,0 -1.864904,-0.029 -0.306268,-0.017 -0.589429,-0.043 -0.843164,-0.084 -0.813833,-0.1318 -1.324962,-0.417 -1.324962,-1.0344 0,-1.1601 1.805642,-2.1006 4.03303,-2.1006 2.227377,0 4.03303,0.9405 4.03303,2.1006 z" fill="#c38c74"/>
    <ellipse cx="15.944382" cy="1033.8501" rx="2.0801733" ry="1.343747" fill="#23201f"/>
    <circle cx="12.414201" cy="1030.3542" r="1.9630634" fill="#171311"/>
    <circle cx="23.110121" cy="1030.3542" r="1.9630634" fill="#171311"/>
    <path d="m 5.0055377,1027.2727 c -1.170435,-1.0835 -2.026973,-0.7721 -2.044172,-0.7463" fill="none" stroke="#384e54" stroke-width="0.397" stroke-linecap="round"/>
    <path d="m 4.3852457,1026.9152 c -1.158557,0.036 -1.346704,0.6303 -1.33881,0.6523" fill="none" stroke="#384e54" stroke-width="0.397" stroke-linecap="round"/>
    <path d="m 26.630533,1027.1724 c 1.17043,-1.0835 2.02697,-0.7721 2.04417,-0.7463" fill="none" stroke="#384e54" stroke-width="0.397" stroke-linecap="round"/>
    <path d="m 27.321773,1026.673 c 1.15856,0.036 1.3467,0.6302 1.3388,0.6522" fill="none" stroke="#384e54" stroke-width="0.397" stroke-linecap="round"/>
  </g>
</svg>
