<svg xmlns="http://www.w3.org/2000/svg" width="64" height="64" fill-rule="evenodd">
  <defs>
    <clipPath id="gc">
      <circle cx="9.485" cy="21.14" r="9.485"/>
    </clipPath>
  </defs>
  <!-- Original 5 circles (top-left replaced by gopher) -->
  <path d="M18.97 42.865c0 5.29-4.248 9.58-9.487 9.58S0 48.156 0 42.86s4.245-9.585 9.485-9.585 9.485 4.293 9.485 9.585zM41.488 21.14c0 5.293-4.25 9.585-9.49 9.585s-9.485-4.29-9.485-9.585 4.248-9.585 9.485-9.585 9.487 4.293 9.487 9.585zm0 21.726c0 5.29-4.25 9.58-9.49 9.58s-9.485-4.29-9.485-9.585 4.248-9.585 9.485-9.585 9.487 4.293 9.487 9.585zM64 21.14c0 5.293-4.245 9.585-9.485 9.585s-9.485-4.29-9.485-9.585 4.245-9.585 9.485-9.585S64 15.848 64 21.14z" fill="#e17f03"/>
  <path d="M64 42.865c0 5.29-4.245 9.58-9.485 9.58s-9.485-4.29-9.485-9.585 4.245-9.585 9.485-9.585S64 37.57 64 42.86z" fill="#e38000"/>
  <!-- Gopher face clipped to top-left circle -->
  <g clip-path="url(#gc)">
    <circle cx="9.485" cy="21.14" r="9.485" fill="#76e1fe"/>
    <!-- Ears -->
    <ellipse cx="5.8" cy="13.5" rx="2" ry="2.6" fill="#76e1fe"/>
    <ellipse cx="13.2" cy="13.5" rx="2" ry="2.6" fill="#76e1fe"/>
    <ellipse cx="5.8" cy="13.7" rx="1.1" ry="1.5" fill="#CE8FCE"/>
    <ellipse cx="13.2" cy="13.7" rx="1.1" ry="1.5" fill="#CE8FCE"/>
    <!-- Eye whites -->
    <circle cx="6.8" cy="19.8" r="2.8" fill="white"/>
    <circle cx="12.2" cy="19.8" r="2.8" fill="white"/>
    <!-- Pupils -->
    <circle cx="7.2" cy="20.1" r="1.4" fill="#171311"/>
    <circle cx="12.6" cy="20.1" r="1.4" fill="#171311"/>
    <!-- Eye shine -->
    <circle cx="7.9" cy="19.3" r="0.5" fill="white"/>
    <circle cx="13.3" cy="19.3" r="0.5" fill="white"/>
    <!-- Snout -->
    <ellipse cx="9.485" cy="24.2" rx="3.2" ry="2" fill="#c38c74"/>
    <!-- Nose -->
    <ellipse cx="9.485" cy="23" rx="1.2" ry="0.8" fill="#23201f"/>
  </g>
</svg>
